<?xml version="1.0" encoding="UTF-8" standalone="no"?>
<!-- Created with Inkscape (http://www.inkscape.org/) -->

<svg
   version="1.1"
   id="svg1"
   width="697.81641"
   height="679.66406"
   viewBox="0 0 697.81641 679.66407"
   sodipodi:docname="moonrabbit.svg"
   inkscape:version="1.3.1 (91b66b0783, 2023-11-16, custom)"
   inkscape:export-filename="moonrabbit.png"
   inkscape:export-xdpi="96"
   inkscape:export-ydpi="96"
   xmlns:inkscape="http://www.inkscape.org/namespaces/inkscape"
   xmlns:sodipodi="http://sodipodi.sourceforge.net/DTD/sodipodi-0.dtd"
   xmlns="http://www.w3.org/2000/svg"
   xmlns:svg="http://www.w3.org/2000/svg">
  <defs
     id="defs1" />
  <sodipodi:namedview
     id="namedview1"
     pagecolor="#ffffff"
     bordercolor="#000000"
     borderopacity="0.25"
     inkscape:showpageshadow="2"
     inkscape:pageopacity="0.0"
     inkscape:pagecheckerboard="0"
     inkscape:deskcolor="#d1d1d1"
     showgrid="false"
     inkscape:zoom="0.75262441"
     inkscape:cx="131.53971"
     inkscape:cy="310.91205"
     inkscape:window-width="1900"
     inkscape:window-height="1060"
     inkscape:window-x="0"
     inkscape:window-y="0"
     inkscape:window-maximized="1"
     inkscape:current-layer="g1" />
  <g
     inkscape:groupmode="layer"
     inkscape:label="Image"
     id="g1"
     transform="translate(-160.94901,-79.937409)">
    <path
       id="path23"
       style="fill:#000016"
       d="m 509.88457,79.937409 -15.20117,16 c -8.36039,8.799981 -19.58242,20.500011 -24.93946,26.000001 l -9.74023,10 -127.03711,0.26172 -127.03711,0.26172 -0.0469,129.73828 -0.0469,129.73828 -22.4336,23 c -12.33833,12.64998 -22.44192,23.3769 -22.45312,23.83594 -0.0112,0.45904 9.44564,10.40673 21.01562,22.10742 11.56999,11.70069 21.68126,22.12577 22.46875,23.16601 1.22258,1.61498 1.4357,18.58589 1.4629,116.14063 l 0.0332,114.25 H 335.4705 465.01347 l 5.20703,4.75 c 2.86394,2.6125 5.5027,5.15779 5.86329,5.65625 0.36059,0.49846 8.2356,8.5235 17.5,17.83203 l 16.8457,16.92578 20,-20.62109 c 10.99998,-11.34115 21.35,-21.49952 23,-22.57422 2.93693,-1.9129 5.70642,-1.95494 131.75,-1.96094 l 128.75,-0.008 V 599.85538 485.27335 l 8.39453,-8.66797 c 4.61733,-4.76731 14.77926,-15.08226 22.58203,-22.92188 7.80276,-7.83961 14.0381,-14.68592 13.85547,-15.21484 -0.18262,-0.52891 -6.63332,-7.38965 -14.33398,-15.24609 -7.70065,-7.85645 -17.71317,-18.16684 -22.25,-22.91211 l -8.24805,-8.62696 V 262.06046 132.43741 l -126.25,0.0371 -126.25,0.0371 -25.77344,-26.28711 z m -103.91797,18.072266 -3.52149,3.414065 -3.52343,3.41211 3.19922,3.30078 c 3.93216,4.05696 4.68486,4.08214 8.33007,0.27734 l 2.89649,-3.02344 -3.68946,-3.68945 z m 208.9707,0.04492 -3.0039,2.878905 c -3.67962,3.52531 -3.70667,4.1626 -0.31836,7.69922 3.3436,3.48998 3.25132,3.4965 7.12109,-0.49609 l 3.19922,-3.30078 -3.49805,-3.39063 z m -325.60547,0.371093 -3.40429,3.513672 -3.40625,3.51367 3.45312,2.95118 c 4.18662,3.57873 3.73408,3.56803 7.68945,0.18164 l 3.23633,-2.76953 -3.7832,-3.69532 z m 473.54297,0.02734 c -0.82657,-0.0222 -7.37824,6.903492 -6.87695,7.269532 0.23741,0.17336 1.92811,1.53073 3.75781,3.01562 4.06402,3.29814 3.87687,3.30856 8.17383,-0.40625 l 3.5,-3.02734 -4,-3.41797 c -2.2,-1.88026 -4.25008,-3.425592 -4.55469,-3.433592 z m -503.25976,0.06641 -3.90821,3.093752 -3.9082,3.0957 3.26172,3.36524 c 3.99447,4.12126 4.73875,4.15278 8.37305,0.35937 l 2.8789,-3.0039 -3.34961,-3.45508 z m 471.58984,0.03906 -3.3418,3.447272 -3.34179,3.44726 3.45312,2.95118 c 4.29201,3.66882 3.93756,3.67881 7.70508,-0.21681 l 3.14258,-3.25 -3.8086,-3.18944 z m -85.27539,0.417969 -3.20899,3.208993 -3.20898,3.20898 2.89648,3.02148 c 1.59255,1.66226 3.17729,3.02149 3.52149,3.02149 0.3442,0 1.92893,-1.35923 3.52148,-3.02149 l 2.89453,-3.02148 -3.20898,-3.20898 z m -271.17383,0.27539 -2.66211,2.328133 c -1.4652,1.2807 -3.05265,2.63293 -3.52734,3.00586 -0.47469,0.37293 0.64544,2.02746 2.49023,3.67578 3.51549,3.14108 3.98144,3.13184 7.62305,-0.14649 2.99006,-2.69179 2.8413,-3.86333 -0.83594,-6.58203 z m 464.76563,0.173828 c -1.62337,0.18503 -3.22704,1.003345 -4.51954,2.646485 -3.46594,4.40624 -2.15341,9.29047 3.01172,11.20118 3.32182,1.22882 7.39031,-0.3872 8.8086,-3.5 2.61941,-5.74902 -2.43067,-10.902744 -7.30078,-10.347665 z m -660.29102,0.05469 c -5.1724,0.595885 -8.71329,6.760645 -4.12695,11.642585 2.58187,2.74827 7.341,3.06298 9.99609,0.66015 2.6976,-2.44128 2.46724,-8.78596 -0.39258,-10.78906 -1.84585,-1.292883 -3.75242,-1.712305 -5.47656,-1.513675 z m 140.05078,3.462895 c -0.46427,0.0216 -0.90622,0.45042 -1.67578,1.30078 -1.27175,1.40527 -1.37801,2.09269 -0.46289,3.00781 1.56167,1.56167 3.27928,1.50176 4.66016,-0.16211 0.85046,-1.02474 0.67926,-1.74616 -0.71485,-3.00781 -0.85615,-0.7748 -1.34237,-1.16025 -1.80664,-1.13867 z m 26.77344,0.66406 c -0.47868,0.0514 -0.94527,0.24996 -1.32617,0.63086 -0.58606,0.58606 -0.78191,1.80441 -0.43555,2.70703 0.80057,2.08623 4.00592,1.53039 4.44922,-0.77148 0.29849,-1.54993 -1.25147,-2.72066 -2.6875,-2.56641 z m 328.27344,0.19336 c -0.60608,-0.0626 -1.2635,0.10969 -1.875,0.61719 -1.42932,1.18623 -1.41716,1.48262 0.13281,3.19531 1.534,1.69505 1.8654,1.7303 3.24023,0.35547 1.68254,-1.68253 0.32022,-3.98027 -1.49804,-4.16797 z m 27.6289,0.0566 c -0.57656,0.0484 -1.17577,0.29881 -1.69726,0.82031 -0.8625,0.86247 -1.26317,2.06129 -0.89063,2.66407 0.93073,1.50594 3.08312,1.37455 4.44922,-0.27149 1.39372,-1.67933 -0.13165,-3.35806 -1.86133,-3.21289 z m -191.43164,15.58008 c 2.57297,0 35.4043,33.01791 35.4043,35.60547 0,0.96905 -7.52154,9.32901 -16.71289,18.57812 -10.78132,10.84908 -17.43758,16.81641 -18.75977,16.81641 -2.76134,0 -35.52734,-32.76059 -35.52734,-35.52149 0,-2.77886 32.80763,-35.47851 35.5957,-35.47851 z m 282.9043,23 c 4.80952,0 6.42816,0.37178 6.89258,1.58203 1.05546,2.7505 0.65585,10.96914 -0.59375,12.21875 -1.2548,1.2548 -11.97596,1.69006 -13.13282,0.5332 -0.83351,-0.83348 -0.88018,-10.61611 -0.0605,-12.75195 0.46442,-1.21025 2.08499,-1.58203 6.89453,-1.58203 z m -569.9961,0.19141 c 1.0316,-0.11244 2.3656,-0.085 4.0879,0.004 l 5.9082,0.30469 v 7 7 l -6.12695,0.29492 c -7.0022,0.33662 -7.38418,-0.0573 -7.35938,-7.625 0.0165,-5.03622 0.39546,-6.6412 3.49023,-6.97851 z m 286.5293,0.4121 -5.55859,5.87891 -5.5586,5.87695 5.75977,5.82032 5.75977,5.82031 5.28125,-5.21484 c 2.90474,-2.86867 5.2832,-5.69758 5.2832,-6.28516 0,-0.58758 -2.46888,-3.50439 -5.48438,-6.48242 z m -153.20508,6.5 c 7.36452,-0.11397 18.60236,-0.0789 34.89844,0.084 l 44.37891,0.44336 5.19726,5.20508 5.19727,5.20507 -0.32031,12.6211 -0.31836,12.62305 3.31836,-0.60352 c 1.82524,-0.33175 7.59531,-1.51481 12.82031,-2.62891 17.66973,-3.76768 18.90713,-2.70018 10.08008,8.6875 -8.0434,10.37666 -10.24859,16.63348 -10.83594,30.75977 -0.65517,15.7575 3.21551,26.14994 14.31836,38.43945 l 3.50195,3.875 -0.2832,11.84375 c -0.36179,15.1647 -1.18189,15.55236 -11.92969,5.64649 -25.12253,-23.15457 -53.92556,-43.82156 -74.60156,-53.52735 -11.03365,-5.17944 -11.05022,-6.43987 -0.17578,-14.26953 8.63112,-6.21445 28.62401,-18.50781 30.09961,-18.50781 0.48921,0 0.76237,-5.28752 0.60742,-11.75 l -0.28125,-11.75 -8.86914,-0.28906 -8.86914,-0.29102 -20.67578,21.04102 c -18.09163,18.41001 -21.06479,21.03906 -23.77539,21.03906 -3.95592,0 -4.31558,-1.03004 -4.29688,-12.33008 l 0.0156,-9.16992 10.44336,-10.60352 10.44335,-10.60351 -16.1582,-0.71094 c -8.88674,-0.39054 -16.5187,-0.93298 -16.95898,-1.20508 -0.44027,-0.2721 -0.79883,-4.2772 -0.79883,-8.90039 0,-7.60776 0.20533,-8.5168 2.17383,-9.57031 0.79868,-0.42744 4.28979,-0.68878 11.65429,-0.80274 z m 247.41993,0.0488 c 6.83662,-0.057 15.92657,0.0147 28.21093,0.0879 37.45853,0.2233 43.75461,0.47149 44.61524,1.75977 1.1913,1.78326 0.20633,16.0208 -1.21094,17.5 -0.52698,0.55 -7.75796,1.14771 -16.06836,1.32617 l -15.10937,0.32422 9.90625,9.94141 9.9082,9.9414 0.31641,10.73438 c 0.34893,11.8327 -0.79742,15.46262 -4.26954,13.51953 -0.97645,-0.54645 -11.32432,-10.51017 -22.99414,-22.14063 l -21.21875,-21.14648 h -4.52734 c -2.49056,0 -6.6162,0.28697 -9.16797,0.63672 l -4.63867,0.63672 v 10.84961 10.84961 l 6.0625,3.06054 c 8.97779,4.53198 8.26056,6.25951 -4.79297,11.54883 -5.6263,2.2798 -15.69958,7.35819 -22.38477,11.2832 -15.08762,8.85828 -15.55189,8.89599 -16.36132,1.38477 -1.45682,-13.51907 -4.43498,-21.10033 -12.42188,-31.62891 -6.53215,-8.61087 -6.25972,-10.10778 1.66016,-9.16211 5.51865,0.65896 15.74048,2.5886 21.48828,4.05664 l 2.75,0.70118 V 173.5253 161.39444 l 4.03906,-4.38281 c 5.45769,-5.9209 5.69912,-7.25101 26.20899,-7.42188 z m 102.25195,0.84766 c 7.31003,0 7.5,0.39837 7.5,15.68555 v 13.2832 l 28.25,0.26562 28.25,0.26563 v 22 22 l -6.50977,0.29101 c -8.96759,0.39979 -8.99023,0.36071 -8.99023,-15.49023 v -13.30078 l -19.75,-0.13477 c -10.86248,-0.0746 -25.15002,-0.41208 -31.75,-0.75 l -12,-0.61523 -0.30664,-5.9707 c -0.33452,-6.51742 0.96003,-8.5293 5.49609,-8.5293 2.29607,0 2.31055,-0.0724 2.31055,-13.29883 0,-15.30426 0.18904,-15.70117 7.5,-15.70117 z m -393.55078,0.0137 c 8.23199,0.0317 7.96393,-0.46428 8.27344,15.34766 l 0.27734,14.13867 3.5,0.5 3.5,0.5 v 6.5 6.5 l -15.5,0.80078 c -8.52498,0.44001 -22.58752,0.56513 -31.25,0.27734 l -15.75,-0.52343 v 13.39062 c 0,7.36529 -0.27357,14.10463 -0.60742,14.97461 -0.97978,2.55328 -13.96178,2.25426 -15.35743,-0.35351 -0.60731,-1.1348 -1.03515,-9.63562 -1.03515,-20.56641 0,-10.93079 0.42784,-19.42966 1.03515,-20.56445 0.98557,-1.84156 2.37553,-1.93555 29.00001,-1.93555 h 27.96484 v -13.29883 c 0,-14.76842 0.35554,-15.709 5.94922,-15.6875 z m 441.29297,4.98633 h 27.84179 l 5.17578,4.75 c 9.53106,8.74883 8.71973,5.27948 8.46485,36.25 l -0.22461,27.5 -6.69141,0.29492 c -9.08158,0.3995 -8.80859,1.27337 -8.80859,-28.22851 V 171.43741 H 753.4998 c -22.6926,0 -26.65071,-0.22102 -28,-1.57031 -1.8971,-1.8971 -2.16457,-11.43504 -0.37109,-13.22852 0.87587,-0.87587 8.7208,-1.20117 29.04297,-1.20117 z m -515.74219,0.0762 28.5,0.21289 28.5,0.21094 0.30273,6.47461 c 0.43954,9.37513 1.58025,9.02539 -29.47851,9.02539 h -26.29102 l -0.26758,26.25 -0.26562,26.25 -6.66406,0.29492 c -4.63934,0.20449 -6.90768,-0.0993 -7.46485,-1 -0.44017,-0.71155 -0.66716,-13.44495 -0.5039,-28.29492 l 0.29687,-27 6.66797,-6.21094 z m -63.5,25.92383 v 29 29 h 4.5 4.5 v -29 -29 h -4.5 z m 670,0.31641 -4.25,0.0918 -4.25,0.0918 -0.26563,28.75 -0.26562,28.75 h 4.51562 4.51563 v -28.8418 z M 530.62871,193.4374 c 5.13114,0 13.94432,13.79292 15.75,24.64648 2.27725,13.68811 -8.05219,32.87376 -20.66992,38.39063 -7.43161,3.24934 -20.28577,3.74763 -27.51172,1.0664 -24.61426,-9.13323 -31.71089,-40.111 -13.74414,-59.99804 4.63404,-5.12933 7.00843,-5.19232 11.77343,-0.3125 4.02495,4.12192 4.56996,6.24431 2.125,8.27344 -2.81614,2.33719 -6.42187,10.7219 -6.42187,14.93359 0,17.47498 22.15472,25.15205 32.69726,11.33008 4.34815,-5.70072 4.13751,-16.85735 -0.44726,-23.62891 -1.7875,-2.64006 -3.25,-5.36107 -3.25,-6.04687 0,-2.04037 7.41205,-8.6543 9.69922,-8.6543 z m -213.17774,10.14844 c 11.92432,0.18368 11.47852,1.54776 11.47852,7.47265 0,7.16335 -0.62028,7.37891 -21.07227,7.37891 h -17.92773 l -0.0137,16.25 c -0.008,8.93748 -0.28555,17.2625 -0.61719,18.5 -0.54585,2.03683 -1.21058,2.25 -7.01758,2.25 -4.26023,0 -6.57896,-0.42487 -6.90234,-1.26758 -0.26781,-0.69789 -0.36632,-12.28541 -0.21875,-25.75 l 0.26953,-24.48242 25.5,-0.26758 c 7.19881,-0.0756 12.54672,-0.14519 16.52148,-0.084 z m 402.10157,0.0859 25.87695,0.26563 v 25.5 25.5 l -6.54297,0.29101 c -3.5983,0.16002 -6.8608,-0.0268 -7.25,-0.41601 -0.38919,-0.38919 -0.70703,-8.73269 -0.70703,-18.54102 v -17.83398 h -18.80078 c -13.28887,0 -19.15177,-0.35099 -20,-1.19922 -1.67594,-1.67594 -1.5444,-11.2693 0.17383,-12.69531 0.96855,-0.80385 8.99726,-1.05953 27.25,-0.8711 z m -209.67969,7.01172 c 2.76996,-0.21715 5.644,0.73718 7.75,3.18555 3.11687,3.62358 2.74822,9.98224 -0.74219,12.80859 -5.89841,4.77625 -15.95117,0.59223 -15.95117,-6.63867 0,-5.37799 4.32675,-8.99355 8.94336,-9.35547 z m 125.66211,3.75391 c 8.8291,0 63.39453,57.29574 63.39453,66.56641 0,1.62756 -5.79891,7.34578 -21.21289,20.92187 l -7.71094,6.79102 3.10742,4.33007 3.10938,4.32813 4.10351,-3.18555 c 2.25692,-1.75154 8.67167,-6.91097 14.25586,-11.46679 5.58421,-4.55584 11.05054,-8.28516 12.14649,-8.28516 2.14027,0 8.20117,8.36342 8.20117,11.31641 0,1.70678 -13.54364,13.4712 -23.97852,20.83007 -6.94709,4.89924 -6.78906,4.4079 -3.49609,10.90625 l 2.52539,4.98438 8.22461,-5.69727 c 10.60664,-7.34863 23.4331,-17.05916 24.22461,-18.33984 0.33991,-0.54998 1.74283,-1 3.11914,-1 5.1208,0 17.70495,32.04294 22.87891,58.25781 1.49332,7.56622 2.44937,14.81307 2.125,16.10547 -0.51314,2.04452 -3.09371,3.20327 -19.85743,8.91406 -10.5968,3.60996 -20.27812,6.85497 -21.51562,7.21094 -2.1795,0.62695 -2.25,1.04039 -2.25,13.20117 0,6.90485 -0.71499,17.33802 -1.58789,23.1836 -0.87289,5.84557 -1.6604,11.68968 -1.75,12.98828 -0.15645,2.26735 12.41302,8.75343 36.56445,18.86523 2.0504,0.85847 3.99797,2.40734 4.32617,3.44141 0.97771,3.08049 -6.52924,23.83297 -15.58203,43.08203 -1.74582,3.71216 -4.72996,3.53581 -9.46875,-0.56055 -3.63209,-3.13968 -3.77254,-3.47592 -2.71289,-6.51562 1.2979,-3.72315 1.11358,-3.87535 -15.94531,-13.05078 l -9.65625,-5.19336 -3.09375,5.71289 c -3.9491,7.29121 -4.07734,6.75653 2.65625,11.05273 15.62916,9.97184 25.29245,17.73933 25.17969,20.24219 -0.0387,0.8596 -1.76104,4.2625 -3.82618,7.5625 -5.5341,8.84323 -6.05651,8.74002 -22.58007,-4.48047 -7.61531,-6.09299 -14.33669,-10.91663 -14.93555,-10.71875 -0.59886,0.19789 -1.75851,1.54781 -2.57617,2.99805 -1.46174,2.59261 -1.38632,2.72354 4.5,7.89258 12.99472,11.41124 20.48828,19.17781 20.48828,21.23828 0,3.00539 -11.96141,17.39838 -24.36524,29.32031 -10.87927,10.45659 -11.30664,10.76499 -13.2539,9.48633 -1.24044,-0.81453 -6.38086,-10.60139 -6.38086,-12.14844 0,-0.53919 5.17501,-6.11825 11.5,-12.39648 6.32498,-6.27825 11.5,-11.87166 11.5,-12.42969 0,-0.55804 -3.48752,-4.42911 -7.75,-8.60352 l -7.75,-7.58984 -8.66211,8.60742 c -5.51301,5.4787 -9.19195,8.40463 -10.11914,8.04883 -0.80119,-0.30744 -6.42858,-9.26 -12.50586,-19.89258 -6.07728,-10.63257 -12.88562,-22.4732 -15.13086,-26.31445 -6.25279,-10.6976 -7.06029,-9.98017 16.70117,-14.88867 8.95629,-1.85014 16.42839,-3.53574 16.60352,-3.7461 1.1876,-1.4265 13.64048,-20.64073 20.60742,-31.79687 l 8.37695,-13.41602 -2.49023,-4.58398 c -2.60887,-4.80245 -13.54791,-23.60345 -32.3457,-55.58594 -6.142,-10.44998 -14.69694,-25.07502 -19.00977,-32.5 -4.31283,-7.42498 -7.95183,-13.64355 -8.08789,-13.82031 -0.13605,-0.17676 -10.07887,-3.63004 -22.09375,-7.67383 -12.01489,-4.04379 -22.25612,-8.00483 -22.75977,-8.80274 -0.69727,-1.10465 3.26115,-5.61983 16.5918,-18.92187 34.95225,-34.87723 43.1374,-49.45974 46.0332,-82.01953 1.08959,-12.25117 1.22489,-12.76172 3.39649,-12.76172 z m -20.13672,5.69141 c 1.98208,0.0178 2.21541,3.23221 1.38476,10.33789 -2.56197,21.91627 -10.75181,38.03566 -33.13085,65.2207 -7.52126,9.13647 -8.86362,6.20097 -4.73438,-10.35352 7.72663,-30.97688 17.77728,-51.1393 30.875,-61.93554 2.59739,-2.14099 4.41622,-3.2802 5.60547,-3.26953 z m -273.18555,1.04296 c 7.53891,0.56451 29.2467,9.41983 47.96094,19.87891 26.52553,14.82469 45.95276,29.92146 75.26367,58.48633 l 14.00781,13.65234 14.49219,4.58203 c 7.97065,2.52041 22.81721,7.1101 32.99219,10.19922 38.16487,11.58688 75.26432,25.1079 77.81641,28.35938 6.13328,7.81404 56.18359,90.25587 56.18359,92.54492 0,2.11272 -2.39283,2.5625 -13.61914,2.5625 h -10.45703 l 4.07617,6 c 3.6628,5.39372 4.42427,6 7.53711,6 2.92957,0 3.45836,0.34643 3.44336,2.25 -0.0229,2.89928 -9.14666,17.15863 -12.30274,19.22656 -2.75383,1.80438 -21.23922,5.55298 -39.67773,8.04688 -16.17512,2.18775 -36.79096,5.93233 -49.33008,8.96093 -11.05231,2.6695 -9.74399,1.76865 -27.26758,18.75782 -6.10303,5.9169 -11.63896,10.75781 -12.30273,10.75781 -4.11175,0 -31.1459,-29.14552 -37.4043,-40.32617 -9.00241,-16.08282 -13.17802,-38.62783 -10.49805,-56.67383 1.19451,-8.0433 2.34237,-9.00398 10.74219,-8.98438 9.67812,0.0226 9.64851,-0.021 8.09961,11.68164 -3.32793,25.14388 2.00145,42.32338 18.14258,58.48047 10.8222,10.83291 9.87666,10.85458 22.2832,-0.5 9.46281,-8.66048 11.47152,-9.58426 27.73828,-12.76172 16.73909,-3.26971 16.18139,-3.85323 -3.70312,-3.86523 l -18,-0.0117 -12.62305,-12.97461 -12.62109,-12.97461 -4.125,3.5293 c -5.88867,5.04048 -7.47086,4.35255 -8.33594,-3.62891 -0.86101,-7.94397 -0.006,-19.3632 1.77734,-23.74023 1.29787,-3.18549 1.44912,-3.24938 7.625,-3.23438 7.70445,0.0187 7.38443,-0.20834 12.72657,8.98438 2.85483,4.91261 7.58952,10.69112 13.72656,16.75 l 9.37109,9.25 h 24.98828 24.99024 v -3.92578 -3.92774 l -20.75,-0.32226 -20.75,-0.32422 -5.36914,-2.97266 c -7.59476,-4.20647 -15.05036,-12.89349 -20.1875,-23.52539 l -4.33008,-8.96484 -23.55664,-0.26953 -23.55664,-0.26758 -0.31836,-2.76172 c -0.55802,-4.85295 2.59931,-13.70389 5.24805,-14.71094 1.29382,-0.49192 13.17561,-0.80965 26.40234,-0.70508 l 24.04883,0.19141 3.05859,2.92969 c 1.68269,1.61212 3.06055,3.5691 3.06055,4.34765 0,2.71621 7.67702,17.77275 10.98047,21.53516 6.44837,7.3443 8.94852,8.01154 31.76953,8.48438 23.31934,0.48316 21.47481,1.54333 18.33789,-10.53321 -4.22947,-16.28258 -11.00018,-26.15178 -21.44727,-31.26172 -9.64678,-4.7185 -13.44014,-5.01562 -64.19531,-5.01562 -26.00489,0 -47.99526,-0.27162 -48.86523,-0.60547 -2.65261,-1.0179 -1.78538,-4.76913 2.53711,-10.97852 2.26494,-3.25367 4.21493,-6.02588 4.33203,-6.1621 0.1171,-0.13623 18.13015,-0.46657 40.02929,-0.73243 21.89916,-0.26586 39.98863,-0.65463 40.19922,-0.86523 0.73165,-0.73165 -22.24538,-4.59366 -33.67773,-5.66016 -38.36782,-3.57924 -67.7909,-13.07916 -100,-32.28906 -9.22969,-5.5047 -9.72979,-5.84727 -24.5,-16.74219 -23.68031,-17.46722 -37.50041,-35.94111 -42.98828,-57.46484 -2.6506,-10.39576 -3.68435,-34.15703 -1.54297,-35.48047 0.44866,-0.27729 1.23746,-0.36581 2.31445,-0.28516 z m 374.7168,3.26563 c 3.79998,0 7.10792,0.51026 7.79883,1.20117 1.47093,1.47094 1.58788,11.20845 0.16601,13.86524 -0.86685,1.6197 -2.13607,1.93359 -7.80078,1.93359 -8.34878,0 -9.16406,-0.75684 -9.16406,-8.5 0,-7.71403 0.8322,-8.5 9,-8.5 z m -412.3418,0.20312 6.8418,0.29688 0.29687,6.8418 c 0.18204,4.18186 -0.15762,7.38796 -0.87304,8.25 -1.47254,1.77429 -12.99597,1.93763 -14.72461,0.20898 -1.72865,-1.72865 -1.56532,-13.25207 0.20898,-14.72461 0.86204,-0.71543 4.06813,-1.05509 8.25,-0.87305 z m -71.59961,8.93164 c 3.12915,-0.0482 7.3427,0.0204 13.01367,0.0957 l 20.42774,0.26953 0.30859,5.4707 c 0.24351,4.29826 -0.0654,5.74384 -1.4414,6.75 -1.27141,0.92968 -6.74605,1.2793 -19.98829,1.2793 -20.77282,0 -21.39123,-0.21074 -21.36523,-7.32031 0.0191,-5.20641 -0.34252,-6.40028 9.04492,-6.54493 z m 542.73633,0.0957 20.70508,0.26953 0.29883,5.75586 c 0.28197,5.40828 0.14287,5.81573 -2.31446,6.75 -3.16347,1.20276 -37.4383,1.31003 -39.31054,0.12305 -1.83514,-1.16347 -2.64775,-8.37395 -1.24024,-11.00391 1.13785,-2.12609 1.52291,-2.15991 21.86133,-1.89453 z m -195.16211,0.75976 c 0.47021,0.0199 0.84469,0.15524 1.10742,0.41797 0.35617,0.35618 -1.86016,5.69872 -4.92382,11.8711 -6.65739,13.41262 -13.61117,34.24625 -18.83594,56.42773 -2.10254,8.9262 -4.10998,16.69384 -4.46094,17.26172 -0.66871,1.08199 -4.95469,1.26535 -7.51953,0.32226 -4.916,-1.80756 -5,-2.23848 -5,-25.70117 0,-12.15586 0.42761,-23.59632 0.95117,-25.42187 2.82563,-9.85238 31.6285,-35.47688 38.68164,-35.17774 z m -256.75976,5.00977 c 7.1613,0 8.29248,1.28905 7.92968,9.02734 l -0.30273,6.47266 -8.12891,0.28906 c -9.33803,0.33141 -9.37109,0.30171 -9.37109,-8.39453 0,-6.30332 1.45495,-7.39453 9.87305,-7.39453 z m 374.07421,0.7793 c 3.76865,-0.0454 7.535,0.37104 8.11719,1.29101 1.02578,1.62093 1.24711,9.95477 0.32813,12.34961 -0.48158,1.25498 -2.21526,1.58008 -8.39258,1.58008 -6.17734,0 -7.91295,-0.3251 -8.39453,-1.58008 -0.86639,-2.25778 -0.72096,-10.68828 0.20898,-12.15234 0.59334,-0.93413 4.36417,-1.44293 8.13281,-1.48828 z m -337.86914,18.37695 c -1.394,0.48635 2.7628,10.23739 7.4043,17.36914 5.2433,8.05643 21.06676,23.62181 31.66992,31.1543 22.03194,15.65147 45.91266,27.08132 82.84766,39.65234 4.54928,1.54838 3.73235,0.12328 -2.06641,-3.60742 -7.52137,-4.83899 -11.26718,-7.70285 -36.42773,-27.84766 -23.30259,-18.65722 -38.82423,-30.18895 -53.15625,-39.49414 -14.53679,-9.43812 -29.00114,-17.66977 -30.27149,-17.22656 z m -180.75586,0.84375 c -2.57611,0 -3.86855,4.74194 -1.88867,6.92969 1.98385,2.19211 4.12413,1.76675 5.67383,-1.12891 1.16317,-2.1734 -1.20386,-5.80078 -3.78516,-5.80078 z m 661.80079,0.12305 c -0.50025,-0.0745 -1.0259,0.38462 -2.04688,1.30859 -2.362,2.13759 -2.60748,3.63861 -0.87695,5.36914 1.66948,1.66949 3.21987,1.49907 5.08203,-0.55859 1.45941,-1.61263 1.43607,-1.96344 -0.26953,-4.22461 -0.91447,-1.21234 -1.38841,-1.82 -1.88867,-1.89453 z m -537.67383,7.87695 c 10.02047,0 10.89899,1.17365 6.42187,8.57422 -1.85472,3.06581 -4.17622,6.44068 -5.16015,7.5 -2.6163,2.8168 -4.17328,2.40835 -8.67383,-2.27539 -4.53282,-4.71731 -4.99059,-7.31744 -1.96485,-11.16407 1.90111,-2.41686 2.67635,-2.63476 9.37696,-2.63476 z m 414.91015,0 c 6.32771,0 7.57768,0.30566 9.46485,2.31445 3.2098,3.4167 2.69298,5.8935 -2.41797,11.57813 -6.42675,7.14809 -7.41981,6.83134 -13.27344,-4.24414 -4.36506,-8.259 -3.46987,-9.64844 6.22656,-9.64844 z m 33.6836,0.11523 c 4.02567,-0.048 9.51117,0.0435 16.98437,0.11914 l 26.39063,0.26563 0.56836,3 c 0.31298,1.65 0.33165,14.95316 0.041,29.56055 l -0.52734,26.55859 -8.5,7.91797 c -4.675,4.35523 -8.62438,8.37906 -8.77539,8.9414 -0.15101,0.56236 4.01149,5.19278 9.25,10.29102 5.23849,5.09826 9.52539,9.93301 9.52539,10.74219 0,0.80918 -7.5131,9.12543 -16.69531,18.48047 -9.18222,9.35503 -17.19302,17.00781 -17.80078,17.00781 -2.91124,0 -3.50391,-2.63713 -3.50391,-15.57031 v -13.17188 l 3.49219,-2.3789 c 4.39818,-2.99525 4.37472,-3.3858 -0.49219,-7.87891 l -4,-3.69141 v -14.48047 c 0,-14.11795 0.06,-14.53639 2.47656,-16.80664 l 2.47852,-2.32812 -10.03711,-10.42188 c -11.97,-12.42766 -12.57393,-14.58735 -4.21485,-15.07031 4.34016,-0.25077 5.61568,-0.79011 7.68555,-3.25 3.74231,-4.44747 5.66694,-3.79309 13.35352,4.54883 3.80091,4.12499 7.21399,7.5 7.58398,7.5 0.36998,0 0.67383,-5.17502 0.67383,-11.5 v -11.5 H 760.6287 c -19.99371,0 -19.70725,0.12411 -19.68555,-8.44922 0.0174,-6.88812 -1.04775,-8.29148 11.0293,-8.43555 z m -259.10156,0.0215 c 1.13659,-0.0252 2.91863,0.23359 5.88476,0.76367 8.53654,1.52557 8.12696,0.2583 7.30078,22.59961 -0.59286,16.03185 -0.74085,17.01308 -2.62695,17.20312 -3.1072,0.31308 -10.83504,-2.43836 -12.23828,-4.35742 -1.49515,-2.04473 -1.7846,-32.97129 -0.33008,-35.26953 0.38251,-0.60439 0.87317,-0.91423 2.00977,-0.93945 z m -267.44141,0.36328 h 27 27 l 0.29687,7.41211 c 0.21058,5.25377 -0.0806,7.65116 -1,8.23437 -0.7134,0.45254 -9.28439,0.83185 -19.04687,0.83985 l -17.75,0.0137 v 11.44141 c 0,6.29252 0.37795,11.67621 0.8418,11.96289 0.46385,0.28667 4.0949,-3.06219 8.06835,-7.44141 8.02349,-8.84276 9.41676,-9.33944 14.75782,-5.26563 1.94425,1.48295 5.40205,2.94546 7.68359,3.25 7.08107,0.94518 6.25254,3.36047 -5.24805,15.30079 l -10.01562,10.39648 2.20508,2.20313 c 2.03465,2.03203 2.23186,3.31882 2.52929,16.5957 l 0.32227,14.39062 -3.57227,3.95508 c -4.36511,4.83169 -4.36301,4.59975 -0.0723,8.64649 l 3.5,3.30078 v 11.19922 c 0,6.15869 -0.46581,12.06702 -1.03516,13.13086 -0.56935,1.06383 -1.82616,1.93359 -2.79297,1.93359 -1.6326,0 -34.22607,-31.6587 -35.00781,-34.00391 -0.19374,-0.58121 3.97253,-5.56184 9.25781,-11.06836 l 9.60938,-10.01172 -9.0332,-8.70703 -9.03321,-8.70898 0.26758,-29.5 z m 303.2207,0.22461 c 1.34449,0.51593 1.95951,42.33978 0.67188,45.69531 -0.79868,2.08132 -3.72767,1.92448 -10.14258,-0.54101 l -5.25,-2.01758 v -20.3711 c 0,-11.20408 0.37872,-20.60638 0.8418,-20.89257 1.44426,-0.89261 12.53415,-2.38908 13.8789,-1.87305 z m 144.39258,4.77539 -8.48047,8.40234 c -8.26126,8.18491 -8.44022,8.46251 -6.9414,10.75 2.12205,3.23866 2.14376,3.22947 11.7539,-4.77929 9.6006,-8.00082 9.45656,-7.72489 6.11133,-11.56641 z m -342.78906,0.043 c 0.42163,0.0802 0.79444,0.30659 1.09375,0.70898 1.39127,1.87049 2.87411,11.46557 1.99219,12.89258 -1.16421,1.88373 -7.71069,-1.14304 -9.53907,-4.41016 -1.77666,-3.17472 3.50166,-9.75295 6.45313,-9.1914 z m -151.10157,10.29883 -2.75976,3.61914 -2.76172,3.61914 2.83984,2.96484 2.83985,2.96484 2.80859,-2.6914 c 3.51755,-3.37006 3.50932,-4.27392 -0.0781,-7.71094 z m 661.27344,0.0312 -2.85937,2.98437 -2.85938,2.98438 2.76172,3.62304 2.76172,3.6211 2.84961,-2.73047 c 3.50356,-3.35662 3.50701,-3.58668 0.0977,-7.40235 z m -525.99609,10.1817 c 1.1,-0.0135 7.19131,4.13138 13.53711,9.21093 14.50747,11.61267 19.03407,15.02987 19.31836,14.58594 2.24762,-3.50974 5.97539,-7.85156 6.74219,-7.85156 0.54853,0 5.28582,3.81747 10.52539,8.48242 22.64849,20.1647 42.14864,32.34224 68.37695,42.69727 11.22796,4.43283 11.11739,4.12515 5.21094,14.48242 -6.65676,11.67297 -16.37425,34.59749 -20.66407,48.75 -3.76693,12.42747 -5.51891,26.91624 -5.53711,45.78125 -0.008,8.58802 -0.37834,11.34383 -1.88085,14 -1.02891,1.81894 -2.92263,6.00664 -4.20704,9.30664 -1.28439,3.3 -7.01684,17.25002 -12.74023,31 -5.72341,13.74998 -11.08955,26.66245 -11.92383,28.69336 -2.64572,6.44053 -3.66327,6.22448 -14.14844,-3.00977 l -6.03711,-5.31836 -8.0371,7.72266 c -4.41988,4.24767 -8.03516,8.2777 -8.03516,8.95508 0,0.67737 5.17501,6.20661 11.5,12.28711 6.32498,6.08047 11.5,11.51801 11.5,12.08398 0,0.56597 -1.1006,3.51791 -2.44531,6.5586 -1.72943,3.91052 -3.002,5.52734 -4.34766,5.52734 -3.46964,0 -26.08212,-21.06858 -34.54492,-32.1875 -4.66667,-6.13132 -3.8846,-7.64253 10.76953,-20.79883 7.11323,-6.38618 13.07474,-12.03973 13.24609,-12.5625 0.17134,-0.52276 -0.73252,-2.25367 -2.00781,-3.84766 -2.86087,-3.57579 -2.01128,-4.04029 -18.62109,10.14649 -7.24431,6.18748 -13.56197,11.25 -14.03907,11.25 -2.24606,0 -10.00976,-12.70805 -10.00976,-16.38477 0,-1.68344 5.74805,-6.35662 19.83008,-16.11523 5.55567,-3.85 10.11626,-7.50482 10.13476,-8.12305 0.0393,-1.31301 -4.76323,-10.13314 -5.90039,-10.83594 -0.99721,-0.6163 -26.6218,14.14065 -26.39258,15.19922 0.0951,0.43911 0.46655,1.96362 0.82422,3.38868 0.55775,2.22223 0.0413,3.03904 -3.62109,5.73242 -2.3486,1.72718 -4.86316,3.13867 -5.58789,3.13867 -4.17687,0 -20.44341,-42.54146 -17.77344,-46.48242 1.04454,-1.54181 27.64663,-14.92538 35.81641,-18.01953 4.78095,-1.81071 4.82143,-1.86693 4.14648,-5.41407 -1.88504,-9.90649 -2.43874,-16.914 -2.46094,-31.08398 l -0.0254,-15.5 -18.74609,-6.33008 c -26.0811,-8.80756 -25.24414,-8.39586 -25.24414,-12.4375 0,-16.03724 16.91224,-69.47352 23.02344,-72.74414 1.48454,-0.79451 8.67695,3.18797 10.97656,6.07813 1.3527,1.70006 26.53174,18.72471 27.13867,18.3496 0.38538,-0.23818 1.89129,-2.56615 3.34766,-5.17187 l 2.64843,-4.73828 -2.81835,-2.37695 c -1.54974,-1.30739 -8.66643,-6.71026 -15.81641,-12.00782 -15.09175,-11.18173 -15.66428,-12.26767 -10.3125,-19.54101 1.98145,-2.6929 4.11615,-4.51069 5.3125,-4.52539 z m -135.5332,17.65234 -3.44336,3.89648 c -4.31001,4.88058 -4.30612,5.01169 0.17578,9.60157 l 3.69922,3.78906 2.88671,-2.74609 c 4.83395,-4.59851 4.87551,-5.3287 0.5918,-10.14454 z m 662,0.85547 -4.09375,4.09375 -4.09375,4.09375 3.73242,4.13281 3.73047,4.13086 4.1289,-3.69531 c 5.32551,-4.767 5.28953,-4.26554 0.62305,-8.82227 z m 0.0664,31.9375 -3.09961,3.35937 -3.09961,3.35938 2.76953,2.89062 c 3.39403,3.54258 3.39765,3.54193 6.70118,0.0937 l 2.67968,-2.79687 -2.97656,-3.45313 z m -661.87305,0.20117 -2.54882,2.90039 c -3.13362,3.56447 -3.17072,4.17461 -0.4375,7.08399 2.87181,3.0569 3.99855,2.92336 6.75195,-0.80079 l 2.30469,-3.11523 -3.03516,-3.0332 z m 543.83985,0.13672 -3.47656,2.14844 c -1.91245,1.18197 -7.87667,4.54441 -13.25196,7.47265 -10.40643,5.66904 -10.58994,5.94485 -8.20312,12.22266 1.13454,2.98405 0.073,3.21618 15.55078,-3.39648 14.76491,-6.30813 14.64672,-6.16425 11.38086,-13.78321 z m -423.64844,0.19336 c -1.90906,-0.27745 -2.0498,1.57718 -3.25781,5.1543 -1.14448,3.38897 -1.84623,6.3979 -1.55859,6.68554 0.28763,0.28764 6.47311,3.10376 13.74414,6.25782 15.92368,6.90742 14.41235,6.73019 15.72656,1.8496 1.39707,-5.18829 1.72711,-4.81212 -10.78711,-12.30273 -8.27976,-4.956 -11.95813,-7.36708 -13.86719,-7.64453 z m -9.54101,29.58594 c -1.22529,0.7573 -2.12719,7.46851 -1.13672,8.45898 0.50926,0.50926 6.75285,2.92502 13.875,5.36914 7.12214,2.44413 13.26671,4.4695 13.65429,4.5 0.93665,0.0738 2.21092,-6.86134 1.40821,-7.66406 -1.19052,-1.19052 -27.06809,-11.1169 -27.80078,-10.66406 z m 440.9414,0.0293 c -2.09109,0.49236 -6.12208,2.17194 -14.25195,5.54688 -14.00102,5.8122 -13.42934,5.38349 -12.7793,9.55664 0.27843,1.7875 0.70962,3.25 0.95899,3.25 0.42106,0 23.70702,-8.05916 27.58398,-9.54688 1.78375,-0.68449 2.16992,-3.22814 1.09766,-7.23046 -0.36813,-1.37407 -0.51829,-2.06853 -2.60938,-1.57618 z m -278.03906,23.03125 c 8.5952,0.79015 9.28711,1.10053 9.28711,4.16407 0,3.08126 -2.71513,11.93198 -4.26563,13.9082 -0.53939,0.6875 -2.61227,1.17443 -4.60742,1.08203 -13.38215,-0.62014 -14.25557,-1.40904 -11.17383,-10.0918 2.89528,-8.15738 4.63805,-9.62526 10.75977,-9.0625 z m 109.79687,3.04688 c 2.81582,0.31123 5.69541,1.57956 8.37696,3.83594 6.52147,5.48745 5.86963,16.17896 -1.25196,20.52148 -11.78086,7.18361 -26.95393,-6.9158 -19.45898,-18.08203 3.12497,-4.65568 7.64097,-6.79411 12.33398,-6.27539 z m -331.6875,3.27539 c 2.54352,0 33.17774,31.62078 33.17774,34.24609 0,1.03237 -6.9467,8.9974 -15.74024,18.05078 -8.65635,8.91213 -16.66957,16.33802 -17.80859,16.50196 -2.43896,0.35103 -34.45117,-31.62851 -34.45117,-34.41602 0,-0.91599 6.41252,-8.22522 14.25,-16.24219 16.63972,-17.02079 17.90868,-18.14062 20.57226,-18.14062 z m 559.64063,0 c 2.87838,0 33.53711,31.36742 33.53711,34.3125 0,1.02268 -7.02773,9.17045 -15.75,18.25976 -10.30201,10.73551 -16.44181,16.3987 -17.75,16.3711 -3.22292,-0.0679 -33.69392,-32.52943 -33.30664,-35.48242 0.46336,-3.5332 30.21964,-33.46094 33.26953,-33.46094 z m -57.45508,10 c 2.19602,0 16.97738,14.57734 16.98438,16.75 0.007,2.246 -0.0278,2.25 -17.02539,2.25 -12.75174,0 -17.12783,-0.3141 -17.41797,-1.25 -2.26959,-7.32102 -1.25218,-12.29564 2.81445,-13.76953 3.79395,-1.37507 13.37827,-3.98047 14.64453,-3.98047 z m -445.35742,0.94336 c 2.02569,-0.16992 4.3527,0.42983 7.9375,1.4414 4.42196,1.24781 8.57463,2.59904 9.22656,3.00196 1.55453,0.96077 1.54188,10.85653 -0.0156,12.41406 -0.83536,0.83536 -6.16243,1.19922 -17.53125,1.19922 -19.93355,0 -20.34388,-0.3213 -11.65625,-9.13672 6.12531,-6.21543 8.6629,-8.63672 12.03906,-8.91992 z m 157.04297,9.51562 c 3.9577,0.23078 7.99406,0.93031 9.04492,1.92188 1.38691,1.30868 -0.13069,13.03905 -1.98828,15.36914 -1.58661,1.99019 -17.63827,1.70764 -18.41797,-0.32422 -0.82926,-2.16103 1.26662,-14.23587 2.78906,-16.07031 0.73645,-0.88735 4.61456,-1.12726 8.57227,-0.89649 z m -214.88672,3.54102 c -0.87819,0 -9.11747,8.70507 -9.67969,10.22656 -0.20454,0.55353 1.59546,2.91139 4,5.24024 5.61053,5.43391 5.56008,5.43489 11.37305,-0.4668 l 4.92383,-5 -4.92383,-5 c -2.70865,-2.75 -5.27151,-5 -5.69336,-5 z m 560.64648,0.36328 c -1.49048,0.0361 -3.05773,1.62798 -5.91211,4.80273 l -4.64257,5.16407 4.76172,4.83593 c 5.79361,5.88206 5.89102,5.88588 11.13085,0.54688 5.13178,-5.22889 5.12774,-4.83538 0.11524,-10.82227 -2.54837,-3.04375 -3.96263,-4.56348 -5.45313,-4.52734 z m -501.34765,9.86133 16.33984,0.27539 0.79492,4.5 c 1.33417,7.55801 0.6989,8.4665 -8.32422,11.91211 -10.68952,4.08194 -10.27496,4.17883 -19.07226,-4.45703 -12.43629,-12.2081 -12.10119,-12.60729 10.26172,-12.23047 z m 444.39453,0.0273 c 20.10634,0.3121 20.35161,0.65387 8.65625,12.03516 -9.0337,8.7911 -7.9366,8.51332 -19.15625,4.86523 l -8.5,-2.76367 0.01,-6.23828 c 0.008,-4.41833 0.44561,-6.51508 1.5,-7.19141 0.83058,-0.53276 8.56178,-0.84563 17.49024,-0.70703 z m -282,14.24805 v 8.5 8.5 l -4.5,0.76172 c -9.20209,1.55678 -13.52051,1.91225 -14.25,1.16992 -1.39399,-1.41855 -0.8633,-16.09327 0.62695,-17.33008 0.75802,-0.62909 5.14554,-1.24534 9.75,-1.37109 z m 51.10156,11.5 c 0.70429,0 3.28799,2.5875 5.74024,5.75 2.45225,3.1625 6.07677,7.30188 8.05664,9.19726 4.46218,4.27174 4.53194,6.75832 0.30273,10.85743 -1.81368,1.75788 -4.22079,3.19531 -5.34961,3.19531 -4.26887,0 -19.26999,-18.58618 -17.83203,-22.09375 0.74935,-1.82787 7.42703,-6.90625 9.08203,-6.90625 z m -182.10742,11.92187 c -2.09808,0.19836 -5.8416,1.85126 -12.92773,5.1211 -14.69595,6.78131 -13.97772,5.97658 -11.42774,12.78906 0.47995,1.28221 1.20808,2.17419 1.61719,1.98242 0.40912,-0.19177 6.51232,-3.26466 13.5625,-6.83008 12.66507,-6.40501 12.81072,-6.5199 12.23047,-9.45312 -0.50486,-2.55214 -0.95662,-3.80775 -3.05469,-3.60938 z m 379.94141,0.25586 c -1.98364,-0.25048 -2.30138,0.84781 -2.82227,3.0586 -0.62688,2.66066 -0.26867,2.92394 13.12109,9.66015 l 13.76563,6.92578 1.20312,-2.66015 c 2.34871,-5.18606 1.9587,-5.56235 -12.45312,-11.95117 -7.18075,-3.18326 -10.83081,-4.78274 -12.81445,-5.03321 z m -440.65235,1.05274 c 0.34288,-0.05 0.65296,-0.006 0.9336,0.13867 1.68386,0.86816 2.2832,5.38481 2.2832,15.22852 v 12.21484 l -3.53125,4.22461 -3.53125,4.22656 10.59961,10.86914 c 11.8925,12.19525 13.07646,15.10787 6.36523,15.66992 -2.64434,0.22145 -4.61857,1.34714 -7.45312,4.25 -2.12072,2.1718 -4.54215,3.94727 -5.38086,3.94727 -0.83871,0 -4.97507,-3.4295 -9.19141,-7.62109 l -7.66601,-7.6211 -0.50782,2.8711 c -0.46465,2.62727 -0.44103,6.28438 0.0977,15.12109 l 0.19922,3.25 13.25,0.0879 c 7.28748,0.0482 15.5,0.38568 18.25,0.75 l 5,0.66211 0.29101,7.75976 c 0.28457,7.55562 0.22463,7.78465 -2.31445,8.75 -1.43403,0.54521 -3.36627,0.88837 -4.29297,0.76172 -0.92669,-0.12663 -12.01264,-0.36057 -24.63672,-0.51953 -16.81334,-0.21172 -23.16171,-0.61802 -23.73437,-1.51953 -0.42998,-0.67689 -0.79083,-14.31201 -0.79883,-30.29883 l -0.0137,-29.0664 16.49219,-16.39063 c 9.07121,-9.01416 17.24473,-16.80886 18.16211,-17.32226 0.41034,-0.22964 0.78602,-0.37378 1.1289,-0.42383 z m 191.39844,0.87695 c 2.45136,0.35367 3.66226,2.34239 4.92187,6.39258 2.7875,8.96297 2.7365,9.09924 -4.74218,12.49023 -10.15786,4.6058 -10.81624,4.24382 -14.48633,-8.00586 -1.59259,-5.31556 -0.84759,-6.47511 5.72851,-8.93554 2.29477,-0.85858 4.14499,-1.45957 5.66602,-1.76563 1.14077,-0.22954 2.09499,-0.29367 2.91211,-0.17578 z m 309.75977,0.28906 c 2.84092,-0.11237 8.44444,5.4511 19.50585,16.58203 l 16.8711,16.97852 -0.68555,29.16016 c -0.37746,16.03817 -0.92574,29.54739 -1.21875,30.02148 -0.95767,1.54955 -53.39608,1.07727 -53.99609,-0.48633 -0.28472,-0.74206 -0.38327,-4.45457 -0.21875,-8.25 l 0.30078,-6.90234 14.5,-0.62305 c 7.97498,-0.34339 16.1875,-0.6809 18.25,-0.75 l 3.75,-0.12695 v -8.41797 c 0,-12.5546 -0.0664,-12.59418 -8.35352,-5.08203 -8.20661,7.43921 -10.07676,7.84107 -13.93945,3 -2.50148,-3.13507 -3.2979,-3.5 -7.64258,-3.5 -9.13185,0 -7.91677,-2.95622 7.36719,-17.90625 l 9.61719,-9.40625 -3.52539,-3.22852 -3.52344,-3.22851 0.01,-10.36524 c 0.0123,-11.56896 0.0907,-17.35637 2.93165,-17.46875 z M 423.36894,501.5741 c 1.59448,-0.44358 3.31773,1.5527 5.92774,5.78125 5.69951,9.23394 16.23968,22.78897 33.44922,43.01367 22.32886,26.24098 47.09357,54.06836 48.11523,54.06836 0.93682,0 14.6395,-15.83715 31.14844,-36 5.62909,-6.87498 15.4954,-18.63084 21.92578,-26.125 6.43035,-7.49416 15.02139,-18.17771 19.0918,-23.74219 9.29335,-12.7045 10.35673,-12.86665 16.08007,-2.43555 5.06518,9.23154 6.74054,6.19212 -20.8789,37.90821 -4.83936,5.55714 -15.37089,17.70718 -23.40235,27 -8.03146,9.29283 -19.05648,21.63517 -24.5,27.42773 -5.44351,5.79258 -11.58346,12.43009 -13.64453,14.75 -2.06107,2.31992 -4.58291,4.2168 -5.60351,4.2168 -2.27157,0 -12.73201,-10.79772 -42.14453,-43.5 -12.36677,-13.74998 -25.64893,-28.39406 -29.51368,-32.54297 -14.91311,-16.00964 -24.49202,-27.81726 -24.45312,-30.14258 0.0213,-1.2725 1.48381,-6.13946 3.25,-10.81445 2.09166,-5.53652 3.55786,-8.41971 5.15234,-8.86328 z m 37.8086,0.33203 c 2.00653,0.3083 3.60598,2.06617 5.96875,5.45312 5.02771,7.20706 4.86659,8.27321 -1.9668,12.89063 -10.98396,7.42202 -10.92387,7.42839 -16.22656,-1.69336 -4.23279,-7.28133 -3.79869,-8.80983 3.8125,-13.40625 3.99172,-2.41062 6.40558,-3.55243 8.41211,-3.24414 z m 98.46679,5.53125 c 1.15604,0 3.30531,2.51236 6.03907,7.05664 4.34734,7.22646 5.16027,10.62877 3.04492,12.74414 -2.82511,2.82511 -7.47025,1.35738 -15.23438,-4.8125 -4.16102,-3.3066 -7.56445,-6.38561 -7.56445,-6.84375 0,-2.08927 10.19584,-8.14453 13.71484,-8.14453 z m -380.58984,13.5 -4.06641,3.95898 -4.06836,3.95703 4.25391,4.34961 4.25586,4.34766 3.23437,-3.80664 c 3.99978,-4.70629 4.003,-4.53271 -0.17187,-9.07031 z m 661.95312,0.0312 -3.53906,3.43164 c -4.30689,4.17441 -4.3087,4.19829 -0.37305,9.0957 3.8068,4.73705 2.97409,4.71512 7.26172,0.19141 4.3623,-4.60247 4.36166,-4.54567 0.11133,-9.05078 z m -363.88281,2.46875 c 1.54702,0 12.78022,12.75997 12.79102,14.5293 0.007,1.17288 -2.63501,4.65359 -6.26367,8.25 -7.45109,7.38485 -7.8878,7.45068 -12.98047,1.9707 -6.91751,-7.44357 -9.95884,-12.4759 -8.82227,-14.59961 0.86972,-1.62508 13.69917,-10.15039 15.27539,-10.15039 z m 62.3125,2.63476 c 2.97035,-1.13982 18.46802,7.7137 18.48242,10.5586 0.005,0.93117 -2.73122,4.86867 -6.08007,8.75 -3.34885,3.88132 -6.65284,7.05664 -7.3418,7.05664 -1.85233,0 -13.56836,-12.54595 -13.56836,-14.5293 0,-2.07964 6.443,-11.0436 8.50781,-11.83594 z m 67.0293,9.4043 c 1.82994,-0.19451 3.18234,1.60675 4.93359,5.3086 3.41327,7.21503 3.24951,8.36312 -2.04883,14.41992 -5.54824,6.34248 -6.821,6.44125 -12.21484,0.94531 -5.38569,-5.48761 -5.32911,-6.00219 1.5293,-14.01172 3.66257,-4.27731 5.97084,-6.46759 7.80078,-6.66211 z m -193.36719,0.55664 c 1.65037,0.52049 3.78873,2.46184 7.27149,6.0918 7.6069,7.9284 7.91966,9.57852 2.76562,14.61133 -4.85638,4.74211 -4.71597,4.76713 -11.63281,-2.22266 -6.46854,-6.53672 -7.0985,-10.21714 -2.7461,-16.05273 1.52861,-2.04951 2.69143,-2.94822 4.3418,-2.42774 z m 83.60938,9.4043 c 1.99678,0 10.2207,8.95294 10.2207,11.12695 0,0.91877 -3.19529,5.09274 -7.09961,9.27344 -3.90433,4.18072 -7.694,7.59961 -8.42188,7.59961 -2.0287,0 -9.46565,-9.20896 -9.47265,-11.73047 -0.008,-2.60654 12.39889,-16.26953 14.77344,-16.26953 z m 26.11328,0.78906 c 2.10626,-0.50973 4.25459,1.69073 9.85742,7.52735 7.39666,7.70529 7.4873,8.35711 2.0918,14.75585 -5.67858,6.73447 -5.19623,6.84481 -14.5918,-3.35742 -7.43553,-8.07389 -7.58261,-9.28979 -1.8418,-15.28125 1.97194,-2.05802 3.22061,-3.33869 4.48438,-3.64453 z m -344.04102,6.48438 c -0.64304,0.11974 -1.39291,0.82982 -2.86914,2.24414 -3.65637,3.50301 -3.68227,4.14414 -0.29687,7.67773 3.32827,3.47398 4.22004,3.44628 7.11523,-0.2207 2.51312,-3.18306 2.16261,-4.88659 -1.72656,-8.40625 -1.04421,-0.945 -1.57962,-1.41466 -2.22266,-1.29492 z m 661.8711,0.0508 c -0.72801,0.21801 -1.64721,1.13352 -3.47461,2.96094 l -3.66797,3.66796 2.89648,3.02344 c 3.58776,3.74481 4.44514,3.75995 7.92578,0.12695 3.03476,-3.1676 2.77288,-4.82407 -1.35156,-8.55664 -1.06288,-0.96189 -1.60011,-1.44066 -2.32812,-1.22265 z m -121.21485,1.67578 c 2.05771,0 9.49219,9.7398 9.49219,12.43555 0,1.24036 -0.82427,2.99991 -1.83008,3.91015 -2.46005,2.22631 -17.9407,2.41777 -18.7793,0.23242 -0.97254,-2.53439 8.44517,-16.57812 11.11719,-16.57812 z m -418.08984,0.70703 c 1.97901,-0.25971 3.84155,1.75938 7.07617,6.5625 3.84446,5.70871 4.474,9.32229 1.75586,10.0918 -4.25575,1.20481 -13.87557,1.58106 -15.48828,0.60547 -4.86796,-2.94483 -4.06658,-7.32153 2.64648,-14.43946 1.5929,-1.68896 2.82236,-2.66448 4.00977,-2.82031 z m 316.51367,1.51953 c 1.83432,0.35326 8.06836,10.37458 8.06836,12.9707 0,0.98149 -4.89193,7.26959 -10.87109,13.97461 l -10.87305,12.19141 8.87305,10.79492 c 4.87916,5.93682 8.87109,11.6005 8.87109,12.58594 0,2.37641 -8.69669,12.24792 -10.82813,12.29102 -0.91985,0.0186 -6.17833,-4.75103 -11.68554,-10.59766 l -10.01367,-10.62891 -7.05079,7.34571 c -3.87757,4.04051 -12.59053,13.19572 -19.36328,20.3457 -6.77274,7.14998 -14.25603,14.9125 -16.6289,17.25 -5.18218,5.10488 -6.1403,5.19954 -10.11524,1 -6.28579,-6.64099 -6.25112,-6.98389 1.44727,-15.04492 3.78429,-3.96259 10.18052,-11.03009 14.21484,-15.70508 16.13204,-18.6939 64.43927,-69.06536 65.95508,-68.77344 z m -215.99414,0.22461 c 2.40637,-0.74213 5.7516,2.65819 13.69531,11.40234 5.9764,6.57861 21.66721,23.32039 34.86719,37.20508 32.01826,33.67916 39.5,41.89946 39.5,43.39649 0,0.69189 -1.59668,3.34826 -3.54688,5.90234 -1.95018,2.55409 -4.31995,4.64258 -5.26757,4.64258 -1.82034,0 -11.54905,-9.62712 -35.21289,-34.85352 l -14.40235,-15.35547 -9.85351,10.10547 c -5.41963,5.55764 -10.5189,10.10352 -11.33008,10.10352 -2.01562,0 -12.38672,-10.43002 -12.38672,-12.45703 0,-0.89745 4.11728,-5.88912 9.15039,-11.0918 8.36901,-8.65095 9.02363,-9.60856 7.66406,-11.20508 -0.81765,-0.96014 -5.60994,-6.38935 -10.65039,-12.0664 -10.21147,-11.50116 -10.36313,-11.98472 -6.33398,-20.17969 1.55742,-3.16768 2.6636,-5.10355 4.10742,-5.54883 z m 30.80664,0.54883 c 0.63786,0 8.00123,7.53752 16.36328,16.75 8.36204,9.21248 19.6325,21.59402 25.04688,27.51367 10.90016,11.9174 11.4514,13.40639 6.83007,18.48633 -1.62611,1.7875 -3.75045,3.23379 -4.7207,3.21289 -0.97026,-0.021 -7.16369,-5.91368 -13.76367,-13.0957 -6.59999,-7.18204 -17.96076,-19.42841 -25.24414,-27.21289 -8.02805,-8.58037 -13.245,-14.9602 -13.25,-16.20118 -0.008,-2.14953 6.74382,-9.45312 8.73828,-9.45312 z m 154.87109,0.73047 c 0.72474,-0.006 1.38829,0.31431 2.17578,0.81445 11.35516,7.21169 11.85061,6.29094 -23.60156,43.70508 -11.33517,11.96248 -21.13728,21.75 -21.7832,21.75 -1.60533,0 -8.40625,-7.65592 -8.40625,-9.46289 0,-0.80159 7.27292,-9.4618 16.16406,-19.2461 8.89114,-9.78431 18.85977,-20.94101 22.15235,-24.79101 8.38577,-9.8054 11.12461,-12.75251 13.29882,-12.76953 z m -77.12109,7.26953 c 0.73439,0 3.89844,2.91997 7.03125,6.48828 6.7734,7.71501 6.74774,8.47492 -0.5957,16.76172 -2.80249,3.1625 -5.69146,5.75 -6.41993,5.75 -3.04377,0 -14.1117,-14.10667 -12.83984,-16.36524 1.63172,-2.89762 11.51443,-12.63476 12.82422,-12.63476 z m 120.66406,15.26367 c 1.68972,0.25263 3.12086,2.36244 5.33985,6.48633 5.57578,10.3623 5.55679,11.77184 -0.23633,18 -5.98489,6.4343 -6.91697,6.47111 -12.65235,0.5 -8.41343,-8.75927 -8.33437,-11.19459 0.65625,-20.32813 3.25392,-3.30565 5.20286,-4.91082 6.89258,-4.6582 z m -308.78711,0.83789 c 3.3958,-0.12932 6.87926,0.29332 7.95117,1.36524 2.07918,2.07918 2.34017,11.73857 0.36133,13.38086 -3.00162,2.49111 -14.20731,2.31821 -15.91992,-0.2461 -1.04524,-1.56506 -0.91124,-10.82136 0.18164,-12.54883 0.72135,-1.14021 4.02999,-1.82185 7.42578,-1.95117 z m 67.54883,0.27149 c 1.89486,-0.11489 4.11249,2.16093 8.09375,6.73828 6.19649,7.12427 6.13161,8.14895 -0.99219,15.63867 -6.10898,6.42277 -6.70661,6.44832 -11.68359,0.5 -5.76305,-6.8878 -5.81911,-7.42866 -1.57813,-15.27539 2.69267,-4.982 4.2653,-7.48667 6.16016,-7.60156 z m 451.07422,0.17773 -2.67188,2.67383 -2.67382,2.67187 2.42578,1.99414 2.42578,1.99219 2.47461,-2.4375 2.47461,-2.43945 -2.22852,-2.22656 z m -560.26758,0.52148 c 3.51704,3.7e-4 7.64314,0.90603 8.40235,2.10352 0.4623,0.72921 0.84746,9.53674 0.85546,19.57422 l 0.0156,18.25 h 17.92773 c 14.96535,0 18.1883,0.26056 19.5,1.57226 1.77168,1.77166 2.05894,7.01469 0.59571,10.86329 l -0.97461,2.56445 H 302.1541 c -17.97478,0 -25.15651,-0.33034 -26.02539,-1.19922 -0.87127,-0.87127 -1.19922,-8.26199 -1.19922,-26.98047 v -25.78125 l 2.55859,-0.64258 c 0.8901,-0.22339 1.99562,-0.32435 3.16797,-0.32422 z m -101.26367,0.0488 c -0.87553,0.0716 -1.64995,0.85744 -2.45899,2.36914 -1.16501,2.17686 -1.0984,2.74912 0.52149,4.53907 l 1.85156,2.04687 2.5,-2.5 c 2.44147,-2.44148 2.45739,-2.54688 0.65625,-4.53711 -1.21799,-1.34587 -2.19479,-1.98959 -3.07031,-1.91797 z m 513.79883,0.0508 c 1.32132,-0.0929 3.05342,-0.0515 5.32422,0.0332 l 7.91406,0.29492 0.29687,4.5625 c 0.16339,2.5086 -0.16428,5.7711 -0.72656,7.25 -0.98282,2.58501 -1.30835,2.6875 -8.43945,2.6875 -8.39779,0 -8.64219,-0.21971 -8.61719,-7.83008 0.0171,-5.2224 0.28408,-6.71927 4.24805,-6.99805 z m 46.40234,0.0273 5.83594,0.30078 0.26562,25.87695 c 0.18843,18.25274 -0.0673,26.28144 -0.87109,27.25 -1.80774,2.1782 -50.13086,1.9961 -52.32422,-0.19726 -1.88558,-1.88557 -2.1455,-10.45411 -0.37109,-12.22852 0.84823,-0.84823 6.71113,-1.20117 20,-1.20117 h 18.80078 v -18.87695 c 0,-21.82549 -0.1846,-21.3825 8.66406,-20.92383 z m 35.92774,8.80078 c 22.5868,0 21.4082,-0.41256 21.4082,7.51172 0,2.61829 -0.62572,4.97142 -1.57227,5.91797 -0.86428,0.86429 -2.77678,1.46933 -4.25,1.3457 -1.47321,-0.12363 -10.3917,-0.35738 -19.81836,-0.52148 -19.21372,-0.33447 -18.3135,0.0717 -18.3457,-8.30274 -0.0225,-5.84807 0.36308,-5.95117 22.57813,-5.95117 z m -542.53125,0.13476 c 3.12896,-0.0482 7.34171,0.0204 13.01171,0.0957 l 20.42774,0.26953 v 6.5 6.5 l -20.63672,0.27148 c -23.0822,0.30195 -21.87821,0.69353 -21.84961,-7.10156 0.0191,-5.19751 -0.34,-6.39064 9.04688,-6.53516 z m 70.79101,5.86524 c 7.93832,0 8.14844,0.21708 8.14844,8.4082 0,4.26123 -0.49028,7.68168 -1.20117,8.39258 -0.67104,0.67104 -3.88773,1.19922 -7.29883,1.19922 -7.74316,0 -8.5,-0.81528 -8.5,-9.16406 0,-7.92228 0.91379,-8.83594 8.85156,-8.83594 z m 413.3125,0 c 7.9474,0 8.83594,0.90434 8.83594,9 0,2.82232 -0.46581,6.00257 -1.03516,7.06641 -0.86685,1.6197 -2.13607,1.93359 -7.80078,1.93359 -8.4467,0 -9.16406,-0.70521 -9.16406,-9 0,-8.29479 0.71736,-9 9.16406,-9 z m -373.26172,3.29883 c 0.83726,0.30787 2.05573,1.4672 4.61914,3.83008 5.51927,5.08746 5.59968,6.69735 0.81446,16.375 -3.94201,7.97233 -5.41888,9.27253 -7.8086,6.88281 -2.24757,-2.24758 -2.21205,-23.55948 0.043,-25.81446 1.03843,-1.03843 1.49477,-1.5813 2.33203,-1.27343 z m 333.59571,1.87695 c 1.80277,0.10997 2.00195,3.90888 2.00195,13.32422 0,11.06919 -0.23537,13.0177 -1.59375,13.2793 -1.99812,0.38481 -2.91372,-0.76076 -6.79102,-8.5 -4.19439,-8.37222 -4.04698,-10.32546 1.10157,-14.73243 2.54167,-2.17557 4.19959,-3.43707 5.28125,-3.37109 z m -301.39258,5.03906 c 1.80311,-0.34269 7.47176,5.37406 26.51367,26.73242 7.08359,7.94533 15.7338,17.58824 19.22266,21.42969 3.48886,3.84147 6.75312,8.05907 7.25195,9.3711 0.8699,2.28798 1.24385,2.02889 9.15625,-6.32422 4.53727,-4.79003 8.83796,-9.5451 9.55664,-10.56641 0.71869,-1.0213 2.3081,-1.85742 3.5332,-1.85742 2.92401,0 12.66016,9.7979 12.66016,12.74023 0,1.46827 -5.65267,7.95884 -17.38281,19.9668 l -17.38086,17.79297 -42.5918,0.28125 -42.5918,0.28125 -0.57226,-2.2832 c -0.31536,-1.25646 -0.44043,-5.88311 -0.27735,-10.28125 l 0.29688,-7.99805 16.5,-0.5 16.5,-0.5 0.30664,-3.69336 c 0.28695,-3.45247 -0.35052,-4.39602 -9.75,-14.44141 -5.53137,-5.91146 -10.05664,-11.55299 -10.05664,-12.53515 0,-3.64548 5.32,-12.82684 7.45703,-12.86914 1.35042,-0.0267 6.85691,4.96725 16.26367,14.75 l 14.22266,14.78906 0.0273,6.75 0.0293,6.75 h 6 6 l -0.0137,-6.75 c -0.0143,-7.72231 2.52359,-4.23149 -22.15625,-30.4668 -17.01427,-18.08658 -16.9418,-17.94886 -13.19727,-24.92383 1.57623,-2.93607 3.58947,-5.47667 4.47266,-5.64453 z m 270.01367,0.90625 c 1.29795,0.36353 2.06417,2.04338 3.33789,4.2168 3.78036,6.45069 3.39998,7.69061 -5.20703,16.92187 -29.39544,31.52738 -30.25,32.68005 -30.25,40.80665 v 4.93359 h 5.89062 5.89063 l 0.36914,-7.33203 0.37109,-7.33203 13.98828,-14.65039 c 9.01653,-9.44226 14.71691,-14.65657 16.03516,-14.66797 1.51542,-0.0131 2.90744,1.66353 5.37305,6.4707 3.95622,7.71347 4.4139,6.59168 -8.29492,20.3457 -8.12128,8.7892 -8.62305,9.58981 -8.62305,13.75 v 4.41602 h 15.46484 c 14.86416,0 15.51014,0.0856 16.63086,2.17969 1.17513,2.19575 0.73722,15.66274 -0.57812,17.79101 -0.42529,0.68813 -14.65085,1.03988 -42.33008,1.04688 l -41.6875,0.0117 -17.75,-18.23047 c -11.20888,-11.51212 -17.75024,-18.97932 -17.75,-20.26367 4.3e-4,-2.26525 9.89763,-13.53516 11.88672,-13.53516 1.32834,0 1.88965,0.53761 14.36328,13.76172 4.26248,4.51893 7.75,7.77875 7.75,7.24219 0,-1.11922 8.50085,-11.43166 17.41211,-21.12305 24.00055,-26.10165 32.26457,-35.308 36.19336,-36.6543 0.58931,-0.20194 1.08102,-0.22664 1.51367,-0.10547 z m 198.88086,1.76563 -4.25,0.30664 -4.25,0.30664 -0.26758,26.25 -0.26562,26.25 h 4.51562 4.51758 v -26.55664 z m -670,1.11328 v 26 26 h 4.5 4.5 v -26 -26 h -4.5 z m 82.5,4 c 8.16571,0 8.5,0.65255 8.5,16.57226 v 13.42774 h 30.29883 c 22.23327,0 30.61947,0.32064 31.5,1.20117 1.55701,1.55702 1.55701,11.04259 0,12.59961 -0.66,0.66 -2.23501,1.19922 -3.5,1.19922 -2.6674,0 -2.67736,0.0884 -2.32422,20.13086 0.1397,7.9288 -0.2001,13.41961 -0.91211,14.75 -0.93503,1.74712 -2.05827,2.11914 -6.39844,2.11914 -7.682,0 -7.66406,0.0456 -7.66406,-19.58399 v -17.18554 l -27.46875,-0.38281 c -16.18972,-0.22497 -27.83919,-0.784 -28.37305,-1.36329 -0.49815,-0.54055 -1.19359,-9.83166 -1.54687,-20.64648 -0.75017,-22.96433 -0.79373,-22.83789 7.88867,-22.83789 z m 498,0.5 h 7.5 7.5 l 0.26953,20.99805 c 0.24344,18.859 0.0964,21.12556 -1.44141,22.25 -1.27036,0.92891 -8.62835,1.25195 -28.51953,1.25195 h -26.80859 v 17.46484 c 0,16.24347 -0.13655,17.53721 -1.93555,18.5 -2.64366,1.41484 -10.39323,1.30795 -11.86523,-0.16406 -0.84085,-0.84085 -1.19922,-6.3778 -1.19922,-18.5 v -17.30078 h -2.80078 c -4.01438,0 -5.19922,-1.71005 -5.19922,-7.5 0,-2.805 0.53922,-5.63883 1.19922,-6.29883 0.88134,-0.88134 9.37128,-1.20117 31.97265,-1.20117 h 30.77344 l 0.27735,-14.75 z m 32.9707,0.0156 c 3.45078,-0.0218 6.90143,0.46707 7.54688,1.48438 1.11843,1.7628 1.23084,15.74354 0.32226,39.69531 l -0.65039,17.19531 -6.42773,5.55469 -6.42774,5.55469 h -27.8457 c -23.98114,0 -28.06464,-0.21698 -29.41797,-1.57031 -1.8971,-1.8971 -2.16457,-11.43504 -0.37109,-13.22852 0.87363,-0.87363 8.48893,-1.20117 28,-1.20117 h 26.80078 l 0.0137,-25.25 c 0.008,-13.88748 0.41718,-25.88179 0.90625,-26.6543 0.64924,-1.02547 4.10001,-1.55827 7.55078,-1.58008 z m -562.9707,0.98438 h 7 7 l 0.26562,26.25 0.26758,26.25 h 26.78321 c 19.49816,0 27.10883,0.32758 27.98242,1.20117 2.0926,2.09262 1.53464,12.54933 -0.73438,13.76367 -1.19889,0.64163 -12.39333,1.03516 -29.44726,1.03516 h -27.51563 l -6.06641,-5.80859 -6.06835,-5.8086 0.26562,-28.4414 z m 362.61133,4.5 c 2.23143,0 14.88867,14.00889 14.88867,16.47851 0,0.77451 -2.52514,4.1335 -5.60938,7.46485 -3.08423,3.33135 -6.41699,6.05664 -7.40625,6.05664 -2.22097,0 -14.98437,-13.59544 -14.98437,-15.96094 0,-2.20995 11.04738,-14.03906 13.11133,-14.03906 z m -97.50391,0.26953 c 1.65635,0.20317 3.49847,1.62367 6.43359,4.36914 5.84085,5.46343 6.11564,7.39432 1.8711,13.16602 -4.01698,5.46222 -4.70848,5.34031 -11.32813,-1.97461 -6.50308,-7.18615 -6.71332,-8.34277 -2.28711,-12.63282 2.18468,-2.11747 3.6542,-3.1309 5.31055,-2.92773 z m 39.4375,0.0254 c 1.59837,-0.093 3.04765,1.17474 5.36719,3.74219 4.01998,4.44966 4.08136,4.0798 -1.91211,11.75586 -4.96332,6.35669 -7.21684,6.61634 -11.41602,1.31445 -4.13845,-5.22523 -3.91471,-6.86501 1.69922,-12.39453 2.91594,-2.87209 4.66335,-4.32496 6.26172,-4.41797 z m -97.20312,0.27344 c 1.97729,-0.0676 3.85502,1.95987 7.4082,6.02344 6.32971,7.23893 6.16989,8.55306 -2.02539,16.68554 -3.7263,3.69775 -7.27813,6.72266 -7.89258,6.72266 -1.73369,0 -12.33743,-11.90358 -12.29883,-13.80664 0.0189,-0.93115 3.0779,-5.01407 6.79688,-9.07422 3.9572,-4.32024 6.03443,-6.4832 8.01172,-6.55078 z m 77.79687,28.43164 c 2.54039,0 33.65782,31.91601 34.17774,35.05469 0.22015,1.32907 -4.69506,7.29622 -16,19.42187 -8.97477,9.62631 -17.00991,17.50767 -17.85547,17.51367 -1.84258,0.0133 -35.96094,-34.05693 -35.96094,-35.91015 0,-2.83653 32.83674,-36.08008 35.63867,-36.08008 z m 0.0312,25.13476 c -1.0387,-0.43832 -10.66992,8.8563 -10.66992,10.29688 0,0.55338 2.3625,3.3998 5.25,6.32617 l 5.25,5.32227 5.14648,-5.78907 5.14649,-5.79101 -4.62696,-5 c -2.54521,-2.75 -5.01911,-5.16396 -5.49609,-5.36524 z m -283.66992,7.86524 c 5.61933,0 7,1.44752 7,7.33594 0,2.89564 -0.54118,5.80484 -1.20117,6.46484 -0.66,0.66 -3.26884,1.19922 -5.79883,1.19922 -5.89296,0 -7,-1.21144 -7,-7.66406 0,-5.88842 1.38065,-7.33594 7,-7.33594 z m 565.74609,0.0391 c 2.55454,-0.12398 5.29663,0.0406 6.67188,0.56836 1.94462,0.74622 2.2498,11.32441 0.38086,13.19336 -1.45437,1.45437 -9.61819,1.53486 -12.04883,0.11914 -2.08742,-1.21581 -2.50129,-10.76824 -0.55078,-12.71875 0.6248,-0.6248 2.99235,-1.03812 5.54687,-1.16211 z m 49.24805,50.50391 c -0.69863,-0.10805 -1.43604,-0.11272 -2.19727,0.004 -0.86997,0.13328 -1.77193,0.42404 -2.68554,0.89649 -4.61714,2.38761 -5.56937,7.61545 -2.07227,11.36914 2.97035,3.1883 9.17464,3.03613 11.3457,-0.27734 3.52187,-5.37505 0.49978,-11.23584 -4.39062,-11.99219 z m -662.89649,0.0547 c -5.035,0.87338 -8.82287,7.7349 -4.44335,12.57421 2.09232,2.31199 8.0442,2.41043 10.51562,0.17383 2.91711,-2.63994 2.44739,-8.7132 -0.87695,-11.32812 -1.69894,-1.33638 -3.51698,-1.71105 -5.19532,-1.41992 z m 583.80665,1.7207 -3.64844,3.3418 -3.64844,3.34179 3.39258,3.5 c 4.10619,4.23653 3.661,4.21842 7.70703,0.29688 l 3.30469,-3.20117 -3.55469,-3.64063 z m -147.86914,0.25586 -3.52149,3.41211 -3.52148,3.41211 3.21875,3.32031 3.21679,3.32031 3.51758,-3.51758 3.51758,-3.51757 -3.21484,-3.21485 z m -325.08008,0.01 -3.19141,3.19141 -3.19141,3.18945 3.41016,3.51758 3.4082,3.51758 2.80469,-2.6875 c 3.53371,-3.38551 3.50859,-4.26103 -0.21875,-7.83203 z m 116.04492,0.0254 -3.50391,3.39454 -3.5039,3.39453 3.19922,3.30078 c 1.75959,1.81545 3.47437,3.30078 3.80859,3.30078 0.33422,0 2.04704,-1.48533 3.80664,-3.30078 l 3.19922,-3.30078 -3.50391,-3.39453 z m 239.69141,0.23829 -3.05469,3.05468 -3.05469,3.05469 2.89648,3.02148 c 3.53876,3.69366 3.50317,3.69396 6.89063,0.15821 l 2.74609,-2.86524 -3.21289,-3.21289 z m -270.49024,0.3496 -3.08789,3.18555 -3.08984,3.1875 2.71484,2.71485 c 3.33713,3.33709 3.29369,3.33722 6.50586,-0.0352 l 2.61914,-2.75 -2.83008,-3.15039 z m -115.35937,0.0312 c -0.92788,0.0425 -1.91633,0.99835 -3.82813,2.91016 l -3.13867,3.13867 3.25781,3.36133 c 3.91308,4.03727 3.58509,4.00735 7.0625,0.67578 3.46767,-3.32221 3.47784,-4.00201 0.11719,-7.50976 -1.6744,-1.7477 -2.54282,-2.61864 -3.4707,-2.57618 z m 472.21875,0.0449 c -0.89607,10e-4 -1.90335,0.89675 -4.06055,2.68945 l -3.5,2.9082 3.44531,3.56446 c 4.1311,4.27291 3.84355,4.27651 7.44531,-0.0547 l 2.89063,-3.47656 -2.82813,-2.95118 c -1.71215,-1.78709 -2.4965,-2.68098 -3.39257,-2.67968 z m -30.56055,2.72656 c -2.76405,0 -3.88872,2.91373 -1.95117,5.05469 1.81902,2.01003 1.83034,2.00946 3.80468,0.0351 2.09219,-2.09218 1.00102,-5.08984 -1.85351,-5.08984 z m -381.41211,0.0293 c -0.44343,-0.002 -0.9711,0.46088 -1.99414,1.38671 -1.59505,1.44349 -1.824,2.20583 -0.96875,3.23633 2.59836,3.13086 6.84359,0.0565 4.44726,-3.2207 -0.68277,-0.93378 -1.04095,-1.40028 -1.48437,-1.40234 z m 353.97656,0.15429 c -0.71741,0.15319 -1.44509,0.57012 -2.06445,1.31641 -0.99319,1.19672 -0.99319,1.80328 0,3 1.68603,2.03154 3.72196,1.88906 4.91797,-0.3457 1.34605,-2.51512 -0.70129,-4.43026 -2.85352,-3.97071 z m -326.81836,0.16602 c -0.5974,-0.0191 -1.22598,0.20253 -1.7832,0.75976 -0.86942,0.86938 -1.25675,2.26581 -0.89258,3.21485 0.80569,2.09957 2.78707,2.15562 4.4707,0.12695 1.51151,-1.82124 -0.003,-4.0443 -1.79492,-4.10156 z" />
  </g>
</svg>
